<svg width="33" height="33" viewBox="0 0 33 33" fill="none" xmlns="http://www.w3.org/2000/svg">
<path d="M2.48633 4.63384C2.48633 5.52947 2.84212 6.38843 3.47543 7.02174C4.10874 7.65505 4.96769 8.01084 5.86333 8.01084C6.75896 8.01084 7.61792 7.65505 8.25123 7.02174C8.88454 6.38843 9.24033 5.52947 9.24033 4.63384C9.24033 3.7382 8.88454 2.87925 8.25123 2.24594C7.61792 1.61263 6.75896 1.25684 5.86333 1.25684C4.96769 1.25684 4.10874 1.61263 3.47543 2.24594C2.84212 2.87925 2.48633 3.7382 2.48633 4.63384Z" stroke="url(#paint0_linear_244_290)" stroke-miterlimit="10"/>
<path d="M26.0852 13.1491L25.142 19.327L20.1768 19.3655M17.1395 23.0188H31.5426M20.4628 23.0188L19.895 31.3266M28.2192 23.0188L28.7871 31.3266M15.693 13.3375H15.682L9.97572 13.3705L5.79022 9.9962C5.75035 9.9632 5.70497 9.9412 5.66235 9.91233C5.59704 9.86352 5.5296 9.81764 5.46022 9.77483C5.388 9.73903 5.31361 9.7078 5.23747 9.68133C5.1866 9.66758 5.13985 9.64283 5.0876 9.62358C4.98574 9.59705 4.88245 9.57639 4.77822 9.5617C4.74935 9.5617 4.72322 9.54795 4.69297 9.5452H4.55547C4.24125 9.53415 3.92873 9.59607 3.64245 9.72609C3.35617 9.8561 3.10392 10.0507 2.90547 10.2946L2.8876 10.3125C2.85322 10.3537 2.82985 10.4018 2.7996 10.45C2.76935 10.4981 2.71022 10.5737 2.6731 10.6425C2.63811 10.7166 2.60645 10.7923 2.57822 10.8693C2.55897 10.9202 2.5356 10.9656 2.5191 11.0192C2.4922 11.1162 2.47244 11.215 2.45997 11.3148C2.45997 11.3492 2.44347 11.3795 2.44072 11.4111V11.4317L1.46722 21.5338C1.42132 22.0313 1.55758 22.5286 1.85068 22.9333C2.14379 23.3379 2.57381 23.6224 3.06085 23.7338L10.3772 25.4072L10.8722 29.9035C10.9013 30.1736 10.9835 30.4353 11.114 30.6735C11.2445 30.9118 11.4208 31.1219 11.6328 31.2918C11.8447 31.4618 12.0882 31.5881 12.3491 31.6637C12.6101 31.7393 12.8834 31.7626 13.1533 31.7322C13.4227 31.7026 13.6836 31.6202 13.9211 31.4897C14.1586 31.3592 14.368 31.1832 14.5375 30.9718C14.7069 30.7603 14.8331 30.5175 14.9086 30.2573C14.9842 29.9971 15.0078 29.7245 14.978 29.4552L14.3221 23.5015C14.2757 23.0751 14.0975 22.6738 13.8124 22.3534C13.5273 22.033 13.1493 21.8095 12.7312 21.714L5.74622 20.119L6.1876 15.6117L7.9586 17.05C8.32572 17.3456 8.7836 17.5065 9.25385 17.5065H9.26622L15.7053 17.4693C16.2524 17.4677 16.7763 17.2488 17.1619 16.8609C17.5476 16.4729 17.7633 15.9476 17.7617 15.4006C17.76 14.8536 17.5411 14.3297 17.1532 13.944C16.7652 13.5584 16.24 13.3427 15.693 13.3443V13.3375Z" stroke="url(#paint1_linear_244_290)" stroke-linecap="round" stroke-linejoin="round"/>
<defs>
<linearGradient id="paint0_linear_244_290" x1="2.48633" y1="4.63384" x2="9.24033" y2="4.63384" gradientUnits="userSpaceOnUse">
<stop stop-color="#F25E25"/>
<stop offset="1" stop-color="#F97F11"/>
</linearGradient>
<linearGradient id="paint1_linear_244_290" x1="1.4585" y1="20.6445" x2="31.5426" y2="20.6445" gradientUnits="userSpaceOnUse">
<stop stop-color="#F25E25"/>
<stop offset="1" stop-color="#F97F11"/>
</linearGradient>
</defs>
</svg>
