<svg width="37" height="37" viewBox="0 0 37 37" fill="none" xmlns="http://www.w3.org/2000/svg">
<path d="M12.1279 20.4657H24.2559M12.1279 12.8857H18.1919" stroke="white" stroke-width="2.27399" stroke-linecap="round" stroke-linejoin="round"/>
<path d="M9.24574 28.8039C7.27479 28.61 5.79829 28.018 4.80807 27.0278C3.03198 25.2518 3.03198 22.3931 3.03198 16.676V15.918C3.03198 10.2008 3.03198 7.34223 4.80807 5.56613C6.58418 3.79004 9.44275 3.79004 15.1599 3.79004H21.2239C26.941 3.79004 29.7997 3.79004 31.5757 5.56613C33.3518 7.34223 33.3518 10.2008 33.3518 15.918V16.676C33.3518 22.3931 33.3518 25.2518 31.5757 27.0278C29.7997 28.8039 26.941 28.8039 21.2239 28.8039C20.3742 28.8228 19.6974 28.8874 19.0327 29.0389C17.2159 29.4571 15.5336 30.3867 13.8711 31.1975C11.5023 32.3525 10.3178 32.9301 9.57453 32.3894C8.15253 31.3303 9.54247 28.0488 9.85394 26.5299" stroke="white" stroke-width="2.27399" stroke-linecap="round" stroke-linejoin="round"/>
</svg>
