<svg width="40" height="40" viewBox="0 0 40 40" fill="none" xmlns="http://www.w3.org/2000/svg">
<path d="M9.20002 5C7.82695 5 6.71387 6.11965 6.71387 7.5008C6.71387 8.88195 7.82695 10.0016 9.20002 10.0016C10.5731 10.0016 11.6862 8.88195 11.6862 7.5008C11.6862 6.11965 10.5731 5 9.20002 5Z" stroke="white" stroke-width="2.5" stroke-linecap="round" stroke-linejoin="round"/>
<path d="M30.8036 34.9999H27.8397C27.4954 34.9999 27.1497 34.9496 26.8336 34.8082C25.8044 34.3481 25.2822 33.7406 25.0389 33.3604C24.9004 33.1441 24.9202 32.8687 25.0704 32.6611C26.2627 31.0131 29.0274 30.0176 30.8036 30.0176M30.8087 34.9999H33.7726C34.1169 34.9999 34.4626 34.9496 34.7787 34.8082C35.8079 34.3481 36.3301 33.7406 36.5734 33.3604C36.7119 33.1441 36.6922 32.8687 36.5419 32.6611C35.3496 31.0131 32.5849 30.0176 30.8087 30.0176" stroke="white" stroke-width="2.5" stroke-linecap="round" stroke-linejoin="round"/>
<path d="M9.19109 19.1543H6.22716C5.88293 19.1543 5.53724 19.104 5.22108 18.9626C4.19189 18.5025 3.66973 17.8948 3.42638 17.5148C3.28791 17.2985 3.30763 17.023 3.45786 16.8155C4.65026 15.1674 7.41491 14.172 9.19109 14.1719M9.19616 19.1543H12.1601C12.5043 19.1543 12.85 19.104 13.1662 18.9626C14.1954 18.5025 14.7175 17.8948 14.9609 17.5148C15.0993 17.2985 15.0796 17.023 14.9294 16.8155C13.737 15.1674 10.9723 14.172 9.19616 14.1719" stroke="white" stroke-width="2.5" stroke-linecap="round" stroke-linejoin="round"/>
<path d="M19.1448 6.66699C23.8326 6.66699 27.8341 6.66699 29.2904 8.13193C30.7468 9.59686 30.7468 11.121 30.7468 15.8366L27.4319 14.1694" stroke="white" stroke-width="2.5" stroke-linecap="round" stroke-linejoin="round"/>
<path d="M19.9742 33.3425C15.2862 33.3425 11.2848 33.3425 9.82842 31.8775C8.37207 30.4125 8.37207 28.8884 8.37207 24.1729L11.6869 25.84" stroke="white" stroke-width="2.5" stroke-linecap="round" stroke-linejoin="round"/>
<path d="M30.7458 20.8379C29.3728 20.8379 28.2598 21.9577 28.2598 23.3387C28.2598 24.7199 29.3728 25.8396 30.7458 25.8396C32.1189 25.8396 33.2319 24.7199 33.2319 23.3387C33.2319 21.9577 32.1189 20.8379 30.7458 20.8379Z" stroke="white" stroke-width="2.5" stroke-linecap="round" stroke-linejoin="round"/>
</svg>
