<svg width="41" height="41" viewBox="0 0 41 41" fill="none" xmlns="http://www.w3.org/2000/svg">
<path d="M18.554 13.4941H21.9273" stroke="white" stroke-width="2.42884" stroke-linecap="round"/>
<path d="M3.37378 18.5539C3.37378 12.9881 3.37378 10.2052 5.10286 8.47615C6.83193 6.74707 9.61484 6.74707 15.1806 6.74707H16.8673C22.4331 6.74707 25.216 6.74707 26.9452 8.47615C28.6742 10.2052 28.6742 12.9881 28.6742 18.5539V21.9273C28.6742 27.4931 28.6742 30.276 26.9452 32.0052C25.216 33.7342 22.4331 33.7342 16.8673 33.7342H15.1806C9.61484 33.7342 6.83193 33.7342 5.10286 32.0052C3.37378 30.276 3.37378 27.4931 3.37378 21.9273V18.5539Z" stroke="white" stroke-width="2.42884" stroke-linecap="round"/>
<path d="M28.6743 15.0218L28.8867 14.8466C32.4554 11.9021 34.2397 10.4298 35.6738 11.1407C37.1078 11.8515 37.1078 14.2083 37.1078 18.9219V21.5595C37.1078 26.2732 37.1078 28.6298 35.6738 29.3407C34.2397 30.0515 32.4554 28.5794 28.8867 25.6347L28.6743 25.4595" stroke="white" stroke-width="2.42884" stroke-linecap="round"/>
</svg>
