<svg width="39" height="39" viewBox="0 0 39 39" fill="none" xmlns="http://www.w3.org/2000/svg">
<path d="M23.234 8.01172H20.0293C15.4972 8.01172 13.2312 8.01172 11.8232 9.41966C10.4153 10.8276 10.4153 13.0936 10.4153 17.6257V25.6374C10.4153 30.1695 10.4153 32.4355 11.8232 33.8435C13.2312 35.2514 15.4972 35.2514 20.0293 35.2514H22.1814C23.4913 35.2514 24.1463 35.2514 24.7352 35.0075C25.3242 34.7635 25.7873 34.3004 26.7136 33.3741L30.9707 29.117C31.897 28.1907 32.3601 27.7277 32.6041 27.1386C32.848 26.5498 32.848 25.8947 32.848 24.5848V17.6257C32.848 13.0936 32.848 10.8276 31.44 9.41966C30.032 8.01172 27.766 8.01172 23.234 8.01172Z" stroke="white" stroke-width="2.4035" stroke-linecap="round" stroke-linejoin="round"/>
<path d="M24.0352 34.4502V32.8478C24.0352 29.8265 24.0352 28.3158 24.9738 27.3771C25.9125 26.4385 27.4231 26.4385 30.4445 26.4385H32.0468" stroke="white" stroke-width="2.4035" stroke-linecap="round" stroke-linejoin="round"/>
<path d="M10.4152 30.4448C7.76033 30.4448 5.60815 28.2927 5.60815 25.6378V12.8191C5.60815 8.287 5.60815 6.02096 7.01609 4.61302C8.42404 3.20508 10.6901 3.20508 15.2222 3.20508H23.2345C25.8892 3.20509 28.0415 5.35732 28.0415 8.01213" stroke="white" stroke-width="2.4035" stroke-linecap="round" stroke-linejoin="round"/>
<path d="M16.0249 20.8302H22.4342M16.0249 14.4209H27.2412" stroke="white" stroke-width="2.4035" stroke-linecap="round" stroke-linejoin="round"/>
</svg>
