<svg width="32" height="32" viewBox="0 0 32 32" fill="none" xmlns="http://www.w3.org/2000/svg">
<path d="M26.6666 17.3332V14.209C26.6666 13.119 26.6666 12.574 26.4637 12.0839C26.2606 11.5939 25.8753 11.2085 25.1045 10.4377L18.7891 4.12234C18.1239 3.45717 17.7914 3.12457 17.3793 2.9275C17.2935 2.8865 17.2058 2.85013 17.1162 2.81852C16.6854 2.6665 16.2151 2.6665 15.2743 2.6665C10.9477 2.6665 8.78433 2.6665 7.31903 3.84793C7.023 4.08661 6.75336 4.35625 6.51468 4.65228C5.33325 6.11758 5.33325 8.28093 5.33325 12.6076V18.6665C5.33325 23.6948 5.33325 26.209 6.89535 27.771C8.31281 29.1885 10.5142 29.3198 14.6666 29.332M17.3333 3.33317V3.99984C17.3333 7.77108 17.3333 9.65669 18.5049 10.8283C19.6765 11.9998 21.5621 11.9998 25.3333 11.9998H25.9999" stroke="url(#paint0_linear_244_272)" stroke-width="2" stroke-linecap="round" stroke-linejoin="round"/>
<path d="M26.6667 29.3332L23.8039 26.4704M23.8039 26.4704C23.9567 26.3177 24.0985 26.1542 24.2285 25.9812C24.8027 25.2172 25.1428 24.2673 25.1428 23.238C25.1428 20.7132 23.0961 18.6665 20.5715 18.6665C18.0467 18.6665 16 20.7132 16 23.238C16 25.7626 18.0467 27.8093 20.5715 27.8093C21.8337 27.8093 22.9767 27.2977 23.8039 26.4704Z" stroke="url(#paint1_linear_244_272)" stroke-width="2" stroke-linecap="round" stroke-linejoin="round"/>
<defs>
<linearGradient id="paint0_linear_244_272" x1="5.33325" y1="15.9992" x2="26.6666" y2="15.9992" gradientUnits="userSpaceOnUse">
<stop stop-color="#F25E25"/>
<stop offset="1" stop-color="#F97F11"/>
</linearGradient>
<linearGradient id="paint1_linear_244_272" x1="16" y1="23.9998" x2="26.6667" y2="23.9998" gradientUnits="userSpaceOnUse">
<stop stop-color="#F25E25"/>
<stop offset="1" stop-color="#F97F11"/>
</linearGradient>
</defs>
</svg>
