<svg width="28" height="28" viewBox="0 0 28 28" fill="none" xmlns="http://www.w3.org/2000/svg">
<g clip-path="url(#clip0_244_288)">
<path d="M28 13.9998V13.9928C28 9.85 26.1963 6.1295 23.3322 3.571L23.3182 3.55933C23.2828 3.52123 23.2433 3.48719 23.2003 3.45783L23.198 3.45667C20.654 1.2234 17.3828 -0.00527426 13.9977 0.00100048C10.4603 0.00100048 7.231 1.31467 4.76934 3.48233L4.7845 3.4695C4.75492 3.49211 4.72758 3.51751 4.70284 3.54533C3.22301 4.85577 2.03849 6.46683 1.22774 8.26956C0.416987 10.0723 -0.00149728 12.0267 4.02516e-06 14.0033C4.02516e-06 18.145 1.80134 21.8655 4.66317 24.4252L4.67717 24.4368C4.7144 24.4787 4.75584 24.5166 4.80084 24.55L4.80317 24.5512C7.34631 26.7814 10.6151 28.0083 13.9977 28.0022C17.396 28.0074 20.6788 26.7691 23.2272 24.5208L23.212 24.5337C24.7175 23.2247 25.9244 21.6077 26.7508 19.792C27.5773 17.9762 28.0041 16.0041 28.0023 14.0092V14.001L28 13.9998ZM22.7943 23.1057C22.1005 22.5451 21.3548 22.052 20.5672 21.6333L20.4913 21.596C21.2065 19.5345 21.637 17.158 21.6778 14.6858V14.6672H26.649C26.4818 17.8656 25.1051 20.8809 22.7978 23.1022L22.7943 23.1057ZM14.6673 21.3498C16.1642 21.4303 17.563 21.7593 18.8533 22.2948L18.7693 22.2645C17.7357 24.6212 16.2808 26.2405 14.6673 26.5963V21.3498ZM14.6673 20.0152V14.6672H20.3467C20.3015 16.8818 19.9175 19.0764 19.208 21.1748L19.2535 21.022C17.8053 20.4258 16.2646 20.0856 14.7 20.0163L14.6685 20.0152H14.6673ZM14.6673 13.3325V7.9845C16.2741 7.91141 17.8559 7.55968 19.3422 6.945L19.25 6.97883C19.8975 8.86767 20.2953 11.0447 20.3467 13.308V13.3325H14.6673ZM14.6673 6.64983V1.40567C16.2808 1.7615 17.7357 3.37383 18.7693 5.7375C17.563 6.23917 16.1642 6.567 14.7012 6.64867L14.6673 6.64983ZM17.997 1.98317C19.3721 2.44083 20.658 3.1323 21.798 4.02717L21.7712 4.00617C21.2543 4.41217 20.6745 4.79483 20.0632 5.12733L19.9978 5.16C19.5051 3.99351 18.8258 2.91502 17.9865 1.96683L17.997 1.97967V1.98317ZM13.3303 1.40917V6.64983C11.8912 6.57651 10.4754 6.25688 9.14434 5.70483L9.22834 5.73517C10.2667 3.3785 11.7192 1.76033 13.3327 1.4045L13.3303 1.40917ZM8.001 5.1565C7.36875 4.81598 6.76619 4.42299 6.19967 3.98167L6.22767 4.00267C7.33445 3.13402 8.58011 2.45873 9.912 2.00533L10.0007 1.9785C9.18418 2.9016 8.5191 3.94825 8.03017 5.0795L8.001 5.1565ZM13.3327 7.98333V13.3313H7.65334C7.70467 11.0435 8.1025 8.8665 8.7955 6.82483L8.75 6.97767C10.1983 7.57093 11.7377 7.91072 13.3012 7.98217L13.3327 7.98333ZM13.3327 14.666V20.014C11.7259 20.0871 10.1441 20.4388 8.65784 21.0535L8.75 21.0197C8.1025 19.132 7.70467 16.9538 7.65334 14.6905V14.666H13.3327ZM13.3327 21.3487V26.5928C11.7192 26.237 10.2643 24.6247 9.23067 22.261C10.437 21.7593 11.8358 21.4327 13.2988 21.351L13.3327 21.3487ZM10.0077 26.0153C8.63378 25.557 7.34829 24.8673 6.20667 23.976L6.23467 23.997C6.7515 23.591 7.33134 23.2083 7.94267 22.8758L8.008 22.8432C8.49704 24.0099 9.17633 25.0874 10.0182 26.0317L10.0077 26.02V26.0153ZM19.999 22.842C20.6757 23.2095 21.2555 23.591 21.8003 24.0168L21.7723 23.9958C20.6656 24.8645 19.4199 25.5398 18.088 25.9932L17.9993 26.02C18.8157 25.0972 19.4808 24.051 19.9698 22.9202L19.999 22.8443V22.842ZM26.649 13.3325H21.6778C21.6414 10.9187 21.2248 8.52567 20.4435 6.2415L20.4913 6.4025C21.3154 5.96847 22.0956 5.45587 22.8212 4.87183L22.7932 4.89283C25.0966 7.10514 26.4739 10.1096 26.6467 13.2987L26.649 13.3325ZM5.20567 4.894C5.87767 5.44 6.6325 5.9405 7.43284 6.36633L7.50867 6.40367C6.7935 8.46517 6.363 10.8417 6.32217 13.3138V13.3325H1.34984C1.51702 10.1341 2.89371 7.1188 5.201 4.8975L5.20567 4.894ZM1.351 14.6672H6.32217C6.35865 17.081 6.7752 19.474 7.5565 21.7582L7.50867 21.5972C6.6325 22.0627 5.87884 22.5632 5.17884 23.1278L5.20684 23.1068C2.90344 20.8945 1.5261 17.8901 1.35334 14.701L1.35217 14.6683L1.351 14.6672Z" fill="url(#paint0_linear_244_288)"/>
</g>
<defs>
<linearGradient id="paint0_linear_244_288" x1="0" y1="14.0016" x2="28.0023" y2="14.0016" gradientUnits="userSpaceOnUse">
<stop stop-color="#F25E25"/>
<stop offset="1" stop-color="#F97F11"/>
</linearGradient>
<clipPath id="clip0_244_288">
<rect width="28" height="28" fill="white"/>
</clipPath>
</defs>
</svg>
