<svg width="40" height="40" viewBox="0 0 40 40" fill="none" xmlns="http://www.w3.org/2000/svg">
<path d="M26.5986 29.3828C30.7012 29.5658 33.9844 32.9626 33.9844 37.1094V38.75H6.01562V37.1094C6.01562 32.9629 9.29826 29.5663 13.4004 29.3828C13.9907 32.4891 16.724 34.8438 20 34.8438C23.2759 34.8438 26.0082 32.489 26.5986 29.3828Z" stroke="url(#paint0_linear_228_910)" stroke-width="2.5"/>
<path d="M16.875 26.9531V28.125C16.875 29.8509 18.2741 31.25 20 31.25C21.7259 31.25 23.125 29.8509 23.125 28.125V26.9531H16.875Z" fill="url(#paint1_linear_228_910)"/>
<path d="M20 4.6875C20.6472 4.6875 21.1719 4.16281 21.1719 3.51562V1.17188C21.1719 0.524687 20.6472 0 20 0C19.3528 0 18.8281 0.524687 18.8281 1.17188V3.51562C18.8281 4.16281 19.3528 4.6875 20 4.6875Z" fill="url(#paint2_linear_228_910)"/>
<path d="M11.1728 3.8505L12.3447 5.88027C12.6683 6.44074 13.385 6.63277 13.9455 6.30918C14.5059 5.98558 14.698 5.26886 14.3744 4.70839L13.2025 2.67863C12.8789 2.11816 12.1622 1.92613 11.6017 2.24972C11.0413 2.57332 10.8492 3.29004 11.1728 3.8505Z" fill="url(#paint3_linear_228_910)"/>
<path d="M5.88175 9.99914L7.91152 11.171C8.47199 11.4946 9.18871 11.3026 9.5123 10.7421C9.83589 10.1816 9.64386 9.46492 9.08339 9.14132L7.05363 7.96945C6.49316 7.64586 5.77644 7.83789 5.45285 8.39836C5.12925 8.95882 5.32129 9.67554 5.88175 9.99914Z" fill="url(#paint4_linear_228_910)"/>
<path d="M32.945 7.96945L30.9152 9.14132C30.3547 9.46492 30.1627 10.1816 30.4863 10.7421C30.8099 11.3026 31.5266 11.4946 32.0871 11.171L34.1168 9.99914C34.6773 9.67554 34.8693 8.95882 34.5457 8.39836C34.2222 7.83789 33.5054 7.64586 32.945 7.96945Z" fill="url(#paint5_linear_228_910)"/>
<path d="M26.0548 6.30918C26.6153 6.63277 27.332 6.44074 27.6556 5.88027L28.8275 3.8505C29.1511 3.29004 28.9591 2.57332 28.3986 2.24972C27.8381 1.92613 27.1214 2.11816 26.7978 2.67863L25.6259 4.70839C25.3023 5.26886 25.4944 5.98558 26.0548 6.30918Z" fill="url(#paint6_linear_228_910)"/>
<path d="M20 8.28125C24.0558 8.28125 27.3438 11.5692 27.3438 15.625C27.3438 18.232 25.983 20.5187 23.9268 21.8223C23.3107 22.2129 22.8087 22.7431 22.4551 23.3594H22.4219V18.9717L24.0566 17.3379C24.9432 16.4513 24.9983 15.0479 24.2227 14.0967L24.0566 13.9121L23.8721 13.7461C22.9208 12.9704 21.5175 13.0255 20.6309 13.9121L20 14.543L19.3691 13.9121L19.1846 13.7461C18.2333 12.9704 16.83 13.0255 15.9434 13.9121C14.9975 14.8579 14.9975 16.3921 15.9434 17.3379L17.5781 18.9717V23.3594H17.5449C17.1913 22.7431 16.6894 22.2129 16.0732 21.8223C14.017 20.5187 12.6562 18.232 12.6562 15.625C12.6562 11.5692 15.9442 8.28125 20 8.28125Z" stroke="url(#paint7_linear_228_910)" stroke-width="2.5"/>
<defs>
<linearGradient id="paint0_linear_228_910" x1="4.76562" y1="34.0625" x2="35.2344" y2="34.0625" gradientUnits="userSpaceOnUse">
<stop stop-color="#F25E25"/>
<stop offset="1" stop-color="#F97F11"/>
</linearGradient>
<linearGradient id="paint1_linear_228_910" x1="16.875" y1="29.1016" x2="23.125" y2="29.1016" gradientUnits="userSpaceOnUse">
<stop stop-color="#F25E25"/>
<stop offset="1" stop-color="#F97F11"/>
</linearGradient>
<linearGradient id="paint2_linear_228_910" x1="18.8281" y1="2.34375" x2="21.1719" y2="2.34375" gradientUnits="userSpaceOnUse">
<stop stop-color="#F25E25"/>
<stop offset="1" stop-color="#F97F11"/>
</linearGradient>
<linearGradient id="paint3_linear_228_910" x1="11.0156" y1="4.27945" x2="14.5316" y2="4.27945" gradientUnits="userSpaceOnUse">
<stop stop-color="#F25E25"/>
<stop offset="1" stop-color="#F97F11"/>
</linearGradient>
<linearGradient id="paint4_linear_228_910" x1="5.29565" y1="9.57023" x2="9.66949" y2="9.57023" gradientUnits="userSpaceOnUse">
<stop stop-color="#F25E25"/>
<stop offset="1" stop-color="#F97F11"/>
</linearGradient>
<linearGradient id="paint5_linear_228_910" x1="30.3291" y1="9.57023" x2="34.7029" y2="9.57023" gradientUnits="userSpaceOnUse">
<stop stop-color="#F25E25"/>
<stop offset="1" stop-color="#F97F11"/>
</linearGradient>
<linearGradient id="paint6_linear_228_910" x1="25.4688" y1="4.27945" x2="28.9847" y2="4.27945" gradientUnits="userSpaceOnUse">
<stop stop-color="#F25E25"/>
<stop offset="1" stop-color="#F97F11"/>
</linearGradient>
<linearGradient id="paint7_linear_228_910" x1="11.4062" y1="15.8203" x2="28.5938" y2="15.8203" gradientUnits="userSpaceOnUse">
<stop stop-color="#F25E25"/>
<stop offset="1" stop-color="#F97F11"/>
</linearGradient>
</defs>
</svg>
