<svg width="40" height="40" viewBox="0 0 40 40" fill="none" xmlns="http://www.w3.org/2000/svg">
<path d="M37.7488 35.4932C37.7488 35.7729 37.5001 36.0222 37.2205 36.0225H2.7771C2.49741 36.0222 2.24878 35.7729 2.24878 35.4932V21.9531L19.3591 27.6826L19.5525 27.748H19.7566C19.9544 27.748 20.2782 27.7476 20.7146 27.6025L20.7156 27.6035L37.7488 21.9502V35.4932Z" stroke="url(#paint0_linear_228_948)" stroke-width="2.5"/>
<path d="M27.2458 9.86475C27.2765 9.99417 27.3048 10.1246 27.3289 10.2563C27.3563 10.5207 27.4558 10.8617 27.7458 11.1519C28.1032 11.5092 28.5377 11.5785 28.8113 11.5786H37.2205C37.5002 11.5787 37.7488 11.8281 37.7488 12.1079V16.7837L20.0388 22.6616L2.32983 16.7837V12.1079C2.32983 11.8282 2.57846 11.5789 2.85815 11.5786H11.2673C11.6367 11.5785 11.9659 11.4319 12.2 11.2446C12.4444 11.049 12.6963 10.7135 12.7478 10.2554C12.7506 10.2377 12.7547 10.2203 12.7576 10.2026C12.7984 10.4952 12.9258 10.7559 13.0857 10.9478C13.3597 11.2765 13.7854 11.4985 14.2585 11.4985H25.6589C26.0366 11.4985 26.4818 11.3738 26.825 11.0308C27.1091 10.7466 27.2926 10.3201 27.2458 9.86475Z" stroke="url(#paint1_linear_228_948)" stroke-width="2.5"/>
<defs>
<linearGradient id="paint0_linear_228_948" x1="0.998779" y1="28.8021" x2="38.9988" y2="28.8021" gradientUnits="userSpaceOnUse">
<stop stop-color="#F25E25"/>
<stop offset="1" stop-color="#F97F11"/>
</linearGradient>
<linearGradient id="paint1_linear_228_948" x1="1.07983" y1="13.3508" x2="38.999" y2="13.3508" gradientUnits="userSpaceOnUse">
<stop stop-color="#F25E25"/>
<stop offset="1" stop-color="#F97F11"/>
</linearGradient>
</defs>
</svg>
